<svg xmlns="http://www.w3.org/2000/svg" xmlns:xlink="http://www.w3.org/1999/xlink" version="1.1" style="enable-background:new 0 0 340.2 170.1;" xml:space="preserve" width="34.48818438805097" height="62.91338421849207"><rect id="backgroundrect" width="100%" height="100%" x="0" y="0" fill="none" stroke="none" class="" style=""/>
<style type="text/css">
	.st0{fill:#C10230;}
	.st1{fill:#FFFFFF;}
	.st2{fill:url(#SVGID_1_);}
	.st3{fill:url(#SVGID_2_);}
	.st4{fill:#931222;}
	.st5{fill:url(#SVGID_3_);}
	.st6{fill:url(#SVGID_4_);}
	.st7{fill:url(#SVGID_5_);}
	.st8{fill:url(#SVGID_6_);}
	.st9{fill:#FF8300;}
	.st10{fill:url(#SVGID_7_);}
	.st11{fill:url(#SVGID_8_);}
	.st12{fill:#FF9015;}
	.st13{fill:url(#SVGID_9_);}
	.st14{fill:url(#SVGID_10_);}
	.st15{fill:url(#SVGID_11_);}
	.st16{fill:url(#SVGID_12_);}
	.st17{fill:#58595B;}
	.st18{fill:url(#SVGID_15_);}
	.st19{fill:url(#SVGID_16_);}
</style>

<g class="currentLayer" style=""><title>Layer 1</title><g xmlns="http://www.w3.org/2000/svg" id="svg_1" class="">
	
	<g id="svg_2">
		<radialGradient id="SVGID_1_" cx="242.7073974609375" cy="61.12200164794922" r="24.9148006439209" gradientUnits="userSpaceOnUse" transform="translate(-224.40945434570312,-29.921260833740234) ">
			<stop offset="0" style="stop-color:#FFCF01"/>
			<stop offset="0.1337" style="stop-color:#FDB614"/>
			<stop offset="0.3356" style="stop-color:#F8951D"/>
			<stop offset="0.5291" style="stop-color:#F47C20"/>
			<stop offset="0.7095" style="stop-color:#F26822"/>
			<stop offset="0.8716" style="stop-color:#F15B22"/>
			<stop offset="1" style="stop-color:#F15623"/>
		</radialGradient>
		<path class="st2" d="M23.290545654296864,4.178739166259767 c-1.6,-1.6 -3.3,-3 -5.1,-4.3 c0,0 0,0 0,0 c0.2,0.1 0.4,0.30000000000000004 0.5,0.4 c0.7000000000000001,0.5 1.3,1 1.9,1.7000000000000002 c7.8,7.8 7.8,20.5 0,28.3 c-5,5 -12,6.8 -18.5,5.4 c1,8.3 4.6,16.3 10.9,22.6 c1.6,1.6 3.3,3 5.1,4.3 c1.8,-1.3 3.5,-2.7 5.1,-4.3 C38.1905456542969,43.27873916625977 38.1905456542969,19.078739166259766 23.290545654296864,4.178739166259767 z" id="svg_3"/>
		<radialGradient id="SVGID_2_" cx="243.3502960205078" cy="46.14419937133789" r="21.074100494384766" gradientUnits="userSpaceOnUse" transform="translate(-224.40945434570312,-29.921260833740234) ">
			<stop offset="0" style="stop-color:#F05323"/>
			<stop offset="0.6894" style="stop-color:#CE2C1E"/>
			<stop offset="1" style="stop-color:#BE141B"/>
		</radialGradient>
		<path class="st3" d="M19.49054565429688,16.078739166259766 c-4,4 -10.5,4.2 -14.7,0.4 c-2.5,6.1 -3.4,12.7 -2.7,19.1 C8.590545654296875,37.078739166259766 15.590545654296875,35.27873916625977 20.590545654296875,30.27873916625977 c7.8,-7.8 7.8,-20.5 0,-28.3 c-0.6000000000000001,-0.6000000000000001 -1.2,-1.1 -1.9,-1.7000000000000002 c0.30000000000000004,0.2 0.5,0.4 0.7000000000000001,0.7000000000000001 C23.590545654296875,5.178739166259767 23.590545654296875,11.978739166259764 19.49054565429688,16.078739166259766 z" id="svg_4"/>
	</g>
</g></g></svg>